<svg xmlns="http://www.w3.org/2000/svg" viewBox="57 -1700 9806 1804">
<g transform="scale(1,-1)">
<g fill="#2b2d2f">
<path transform="translate(0,0)" d="M137 0H1102V234H764V1062L731 1094L137 1068V835H476V234H137ZM385 1420C385 1313 462 1245 575 1245C688 1245 764 1313 764 1420C764 1527 688 1593 575 1593C462 1593 385 1527 385 1420Z"/>
<path transform="translate(1240,0)" d="M1098 0V785C1098 1002 1002 1092 818 1092C656 1092 549 1022 444 909H409L393 1068H142V0H429V753C501 819 581 864 674 864C755 864 811 831 811 711V0Z"/>
<path transform="translate(2480,0)" d="M1138 1345V1588C1066 1609 988 1620 895 1620C554 1620 400 1466 400 1076V1068H98V834H400V234H161V0H1002V234H687V834H1106V1068H687V1144C687 1322 740 1374 909 1374C987 1374 1059 1363 1138 1345Z"/>
<path transform="translate(3720,0)" d="M88 537C88 164 311 -24 628 -24C835 -24 1045 56 1124 289L845 328C804 237 725 198 629 198C475 198 390 302 379 494H1126V599C1126 931 949 1092 641 1092C316 1092 88 912 88 537ZM389 662C421 812 512 871 632 871C761 871 846 804 846 664V662Z"/>
<path transform="translate(4960,0)" d="M623 1068H133V834H371V234H133V0H974V234H659V735C796 796 930 806 1132 806V1080C1100 1089 1067 1092 1027 1092C859 1092 764 1029 674 909H638Z"/>
</g>
<g transform="translate(6200,0)" fill="#b87333">
<path transform="translate(0,0)" d="M1134 339 857 373C824 269 754 198 626 198C469 198 379 306 379 533C379 753 463 871 627 871C757 871 835 797 855 674L1133 698C1112 965 909 1092 637 1092C328 1092 88 926 88 533C88 168 296 -24 622 -24C851 -24 1071 71 1134 339Z"/>
<path transform="translate(1240,0)" d="M359 334C359 87 477 -23 714 -23C948 -23 1075 87 1075 334V396H876V327C876 230 821 197 761 197C700 197 647 232 647 329V834H1058V1068H647V1360H359V1068H98V834H359Z"/>
<path transform="translate(2480,0)" d="M137 0H1103V234H764L765 1524L731 1556L138 1530V1297H477L476 234H137Z"/>
</g>
</g></svg>